<?xml version="1.0" standalone="no"?>
<!DOCTYPE svg PUBLIC "-//W3C//DTD SVG 20010904//EN"
 "http://www.w3.org/TR/2001/REC-SVG-20010904/DTD/svg10.dtd">
<svg version="1.0" xmlns="http://www.w3.org/2000/svg"
 width="512.000000pt" height="512.000000pt" viewBox="0 0 512.000000 512.000000"
 preserveAspectRatio="xMidYMid meet">
<metadata>
Created by potrace 1.14, written by Peter Selinger 2001-2017
</metadata>
<g transform="translate(0.000000,512.000000) scale(0.100000,-0.100000)"
fill="#000000" stroke="none">
<path d="M2400 5115 c-8 -2 -55 -9 -105 -15 -266 -35 -562 -147 -795 -301 -52
-34 -97 -65 -100 -68 -3 -3 -27 -24 -53 -45 -207 -166 -389 -398 -511 -649
-91 -187 -155 -399 -182 -597 -11 -82 -13 -382 -3 -442 68 -416 180 -724 416
-1146 192 -344 509 -797 769 -1102 254 -296 350 -403 554 -613 177 -181 162
-181 339 0 219 224 301 315 521 573 8 10 29 35 47 56 17 22 53 66 80 99 59 71
249 323 314 415 444 627 722 1240 776 1710 12 101 9 365 -6 470 -56 410 -243
788 -535 1084 -136 137 -228 209 -426 330 -139 86 -441 192 -628 221 -23 4
-54 9 -70 11 -32 5 -380 12 -402 9z m295 -1046 c320 -49 595 -281 700 -592 45
-135 55 -320 24 -457 -29 -123 -31 -130 -40 -136 -5 -3 -9 -13 -9 -23 0 -28
-93 -176 -155 -246 -57 -65 -155 -144 -236 -188 -200 -111 -477 -136 -696 -62
-285 96 -509 341 -579 631 -25 104 -26 280 -3 384 29 123 31 130 40 136 5 3 9
13 9 23 0 10 22 55 50 100 192 320 535 484 895 430z"/>
</g>
</svg>
